<?xml version="1.0" encoding="UTF-8" standalone="no"?>
<!-- Created with Inkscape (http://www.inkscape.org/) -->

<svg
   xmlns:dc="http://purl.org/dc/elements/1.1/"
   xmlns:cc="http://creativecommons.org/ns#"
   xmlns:rdf="http://www.w3.org/1999/02/22-rdf-syntax-ns#"
   xmlns:svg="http://www.w3.org/2000/svg"
   xmlns="http://www.w3.org/2000/svg"
   xmlns:sodipodi="http://sodipodi.sourceforge.net/DTD/sodipodi-0.dtd"
   xmlns:inkscape="http://www.inkscape.org/namespaces/inkscape"
   id="svg2"
   version="1.1"
   inkscape:version="0.48.4 r9939"
   width="2581.6692"
   height="1981.2913"
   xml:space="preserve"
   sodipodi:docname="animated_stuart.svg"
   inkscape:export-filename="C:\Users\Adam\Documents\Work\Web Design\MySites\hospitalityrocks\assets\animated_stuart.png"
   inkscape:export-xdpi="13.441529"
   inkscape:export-ydpi="13.441529"><metadata
     id="metadata8"><rdf:RDF><cc:Work
         rdf:about=""><dc:format>image/svg+xml</dc:format><dc:type
           rdf:resource="http://purl.org/dc/dcmitype/StillImage" /><dc:title></dc:title></cc:Work></rdf:RDF></metadata><defs
     id="defs6" /><sodipodi:namedview
     pagecolor="#ffffff"
     bordercolor="#666666"
     borderopacity="1"
     objecttolerance="10"
     gridtolerance="10"
     guidetolerance="10"
     inkscape:pageopacity="0"
     inkscape:pageshadow="2"
     inkscape:window-width="1440"
     inkscape:window-height="878"
     id="namedview4"
     showgrid="false"
     inkscape:zoom="0.29675411"
     inkscape:cx="1016.3487"
     inkscape:cy="898.93783"
     inkscape:window-x="-8"
     inkscape:window-y="-8"
     inkscape:window-maximized="1"
     inkscape:current-layer="g10"
     fit-margin-top="0"
     fit-margin-left="0"
     fit-margin-right="0"
     fit-margin-bottom="0" /><g
     id="g10"
     inkscape:groupmode="layer"
     inkscape:label="21141_4Remarkable_Wizard_Illustration"
     transform="matrix(1.25,0,0,-1.25,-40.025,1962.64)"><path
       inkscape:connector-curvature="0"
       id="path14"
       style="fill:#201b1c;fill-opacity:1;fill-rule:nonzero;stroke:none"
       d="m 32.02,-0.001 c 0,0 10,392.965 94,558.965 84,166 158,314 184,342 26,28 116,96 139,93 23,-3 82,-18 93,-4 11,14 67,57 113,49 46,-8 58,17 75,26 17,9 50,17 50,17 l 103,-19 217,-129 0,-54 c 0,0 2,-11 21,-13 19,-2 60,-3 80,-29 20,-26 121,-206 166,-320 45,-114 111,-369 111,-381 0,0 -4,8 -18,-20 -14,-28 -44,-93.926 -72,-116.965 -28,-23.035 -1356,0 -1356,0" /><path
       inkscape:connector-curvature="0"
       id="path16"
       style="fill:#dfa095;fill-opacity:1;fill-rule:nonzero;stroke:none"
       d="m 932.129,684.874 c 0,0 -60.277,13.09 -82.695,33.09 -22.414,20 -54.176,91.445 -64.297,107.223 -10.117,15.777 -57.117,108.777 -57.117,141.777 0,33 30.085,96 26.543,104 0,0 -13.543,10 -14.543,29 -1,19 -6,92 9,114 15,22 26.238,37 36.117,31 0,0 35.883,101 59.883,117 24,16 55,52 99,53 44,1 109,-6 144,-24 35,-18 107,-27 122,-74 15,-47 35,-56 28,-81 -7,-25 -25,-72 -24,-94 1,-22 -5,-64 -13,-77 -8,-13 -38,-64 -39,-77 -1,-13 6,-35 -9,-39 -15,-4 -88,-117 -129,-149 -41,-32 -19.969,-20.246 -19.969,-20.246 0,0 11.969,-26.934 -65.031,-94.844" /><path
       inkscape:connector-curvature="0"
       id="path18"
       style="fill:#ffffff;fill-opacity:1;fill-rule:nonzero;stroke:none"
       d="m 132.02,468.964 c 0,0 36,128 114,128 78,0 168,-44.402 414,-607.203 l -18.875,0 c 0,0 -259.489,623.117 -385.481,582.617 0,0 -59.801,13.656 -123.644,-103.414" /><path
       inkscape:connector-curvature="0"
       id="path20"
       style="fill:#ffffff;fill-opacity:1;fill-rule:nonzero;stroke:none"
       d="m 528.02,970.964 c 0,0 53.332,56 78,61.332 0,0 -23.336,-10.668 -33.336,-26.668 -10,-16 -28,-38.664 -36,-38.664 -8,0 -8.664,4 -8.664,4" /><path
       inkscape:connector-curvature="0"
       id="path22"
       style="fill:#3c3336;fill-opacity:1;fill-rule:nonzero;stroke:none"
       d="m 474.992,800.8 211.649,550 20.914,-5.821 -215.742,-551.382 -16.821,7.203 z" /><path
       inkscape:connector-curvature="0"
       id="path24"
       style="fill:#dfa095;fill-opacity:1;fill-rule:nonzero;stroke:none"
       d="m 361.352,248.964 c 0,0 -82.668,-8.668 -94.668,-8 -12,0.664 -22,4.664 -35.332,16.664 -13.332,12 -70.668,45.332 -80.668,76.668 -10,31.332 -27.153,120.117 -17.766,136.305 9.387,16.187 47.812,87.285 92.121,97.156 44.313,9.871 35.645,0 35.645,0 0,0 -4.664,31.82 4,46.18 8.668,14.359 14,25.027 13.332,31.027 -0.664,6 -3.332,30.664 12,43.332 15.336,12.668 22.668,8.668 25.336,20.668 2.664,12 2.668,38 15.332,42.664 12.668,4.668 16.668,10.668 28,8.668 11.332,-2 22,3.332 25.332,8 3.336,4.668 -0.664,48.668 19.336,55.332 20,6.668 29.332,15.336 48.664,8.668 19.336,-6.668 24.668,-22.668 26.668,-28 0,0 14,17.332 26,16 12,-1.332 31.332,-14 29.332,-31.332 -2,-17.336 -4.411,-24.668 5.129,-30.668 9.539,-6 16.871,-27.332 16.871,-36 0,0 15.336,-13.332 12,-25.332 0,0 18,-22 17.336,-37.336 -0.668,-15.332 0.015,-52.664 0.015,-52.664 0,0 12.02,-35.336 0,-54 -12.015,-18.668 -24.683,-38.668 -42.015,-55.336 -17.336,-16.664 -65.645,-74.852 -80.668,-76.664 -15.024,-1.813 -22,-20 -25.332,-37.336 -3.336,-17.332 -7.332,-110.664 -76,-134.664" /><path
       inkscape:connector-curvature="0"
       id="path26"
       style="fill:#ffffff;fill-opacity:1;fill-rule:nonzero;stroke:none"
       d="m 516.652,-10.239 c 0,0 -68.015,174.351 -89.996,317.133 L 539.145,-7.06 516.652,-10.239 z" /><path
       inkscape:connector-curvature="0"
       id="path28"
       style="fill:#ffffff;fill-opacity:1;fill-rule:nonzero;stroke:none"
       d="m 785.137,192.897 c 0,0 74.996,245.989 62.996,320.985 0,0 3,-182.992 -53.996,-331.485 l -9,0 0,10.5 z" /><path
       inkscape:connector-curvature="0"
       id="path30"
       style="fill:#ffffff;fill-opacity:1;fill-rule:nonzero;stroke:none"
       d="m 1020.715,-10.239 c 0,0 -7.59,153.64 -21.09,179.14 0,0 30.18,32.996 21.09,53.996 0,0 10.707,-43.496 -9.692,-50.996 0,0 29.102,-145.289 24.602,-182.14 l -14.91,0 z" /><path
       inkscape:connector-curvature="0"
       id="path32"
       style="fill:#ffffff;fill-opacity:1;fill-rule:nonzero;stroke:none"
       d="m 957.352,608.96 c 0,0 -5.332,-45.332 8.668,-80.664 14,-35.336 25.332,-132 23.332,-143.336 -2,-11.332 9.332,21.336 5.332,48 0,0 10,-30.664 9.336,-58.664 l -0.668,-28 c 0,0 4.668,88 -14,145.332 -18.668,57.332 -28,105.332 -28,113.332 0,8 -3.289,13.402 -4,4" /><path
       inkscape:connector-curvature="0"
       id="path34"
       style="fill:#f3b8b0;fill-opacity:1;fill-rule:nonzero;stroke:none"
       d="m 300.684,526.964 c 0,0 -48.664,45.996 -28.664,79.332 20,33.332 11.843,29.332 11.921,41.332 0.079,12 10.743,30 27.411,37.336 16.668,7.332 6.668,43.035 24.668,50.519 18,7.481 32.664,10.813 40.664,16.145 8,5.336 42.472,-17.074 63.472,-39.664 20.996,-22.59 49.496,-70.953 28.496,-72.27 -21,-1.32 -56.996,15.18 -65.996,24.18 -9,9 -16.277,-6 -6.636,-15 9.636,-9 62.132,-30.328 48.632,-51.91 -13.496,-21.586 -37.496,-38.086 -55.496,-26.086 -18,12 -58.496,38.668 -49.496,26.086 9,-12.586 53.449,-53.274 40.496,-59.152 -12.953,-5.883 -29.996,-44.926 -49.496,-35.93 -19.5,9 -29.976,25.082 -29.976,25.082" /><path
       inkscape:connector-curvature="0"
       id="path36"
       style="fill:#f3b8b0;fill-opacity:1;fill-rule:nonzero;stroke:none"
       d="m 489.02,798.964 c 0,0 10,15 18,13 8,-2 23,-18 21,-26 -2,-8 10,-41 0,-41 -10,0 -39,54 -39,54" /><path
       inkscape:connector-curvature="0"
       id="path38"
       style="fill:#f3b8b0;fill-opacity:1;fill-rule:nonzero;stroke:none"
       d="m 403.02,787.964 c 0,0 -5,11.367 7,24.183 12,12.817 17,14.817 26,11.817 9,-3 23,-2.633 27,-11.817 4,-9.183 21,-28 26,-33.593 5,-5.59 -3.012,-16.59 -13.008,-22.59 -9.992,-6 -26.992,-26.965 -38.992,-20.481 -12,6.481 -34,52.481 -34,52.481" /><path
       inkscape:connector-curvature="0"
       id="path40"
       style="fill:#b77668;fill-opacity:1;fill-rule:nonzero;stroke:none"
       d="m 261.02,555.964 c 0,0 73,-103 135,-111 62,-8 64,0 64,0 l 30.527,22 c 0,0 -29,-67.113 -114.762,-25.559 -85.765,41.559 -99.765,73.559 -114.765,114.559" /><path
       inkscape:connector-curvature="0"
       id="path42"
       style="fill:#b77668;fill-opacity:1;fill-rule:nonzero;stroke:none"
       d="m 396.02,470.964 c 0,0 38,39.691 13,66.848 -25,27.152 -13,18.152 -13,18.152 0,0 23,-24 46,-10 23,14 46.988,48 33.992,64 -12.992,16 -19.992,16.519 -19.992,16.519 0,0 27,-14.519 33,-4.519 6,10 22,48 6,71 0,0 -29.872,-11.16 -47.489,19 0,0 19.547,-19 43.016,-8 23.473,11 19.988,36 19.988,36 0,0 13.668,-37.371 -4.515,-43 0,0 16.664,-52 -9.336,-80 l -10.664,-4.668 c 0,0 3.761,-10 -3.122,-23.332 -6.878,-13.336 -19.546,-56.004 -52.214,-56.668 l -10.664,3.566 c 0,0 22,-26.898 -24,-64.898" /><path
       inkscape:connector-curvature="0"
       id="path44"
       style="fill:#b77668;fill-opacity:1;fill-rule:nonzero;stroke:none"
       d="m 852.02,843.964 c 0,0 36,-49 87,-49 51,0 81,19.445 84,30.223 3,10.777 0,22.777 0,22.777 0,0 18,-24 -18,-44 -36,-20 -125,-23 -153,40" /><path
       inkscape:connector-curvature="0"
       id="path46"
       style="fill:#b77668;fill-opacity:1;fill-rule:nonzero;stroke:none"
       d="m 758.52,1068.464 c 0,0 16.5,-5.5 22,7.5 l 5.5,13 c 0,0 -1.5,-23.5 -10.5,-25.5 -9,-2 -17,5 -17,5" /><path
       inkscape:connector-curvature="0"
       id="path48"
       style="fill:#b77668;fill-opacity:1;fill-rule:nonzero;stroke:none"
       d="m 777.02,1112.964 c 0,0 -16,31 -13,38.5 3,7.5 8,3 18.5,15 10.5,12 8.5,19.5 12.5,16.5 4,-3 4.5,-10.5 0,-15 -4.5,-4.5 -11.688,-7.5 -14.094,-14.5 -2.406,-7 14.594,-34.5 9.094,-40.5 -5.5,-6 -13,0 -13,0" /><path
       inkscape:connector-curvature="0"
       id="path50"
       style="fill:#b77668;fill-opacity:1;fill-rule:nonzero;stroke:none"
       d="m 744.02,1161.464 c 0,0 -3,53.5 23.5,68.5 26.5,15 37,-24 37,-24 0,0 -17,29.5 -32.25,17 -15.25,-12.5 -21.75,-62.5 -28.25,-61.5" /><path
       inkscape:connector-curvature="0"
       id="path52"
       style="fill:#b77668;fill-opacity:1;fill-rule:nonzero;stroke:none"
       d="m 947.352,1084.964 c 0,0 -40.668,-25.336 -52,-27.336 -11.332,-2 -18.668,-7.664 -18.668,-7.664 0,0 20,-3 35.336,7.664 15.332,10.668 35.332,27.336 35.332,27.336" /><path
       inkscape:connector-curvature="0"
       id="path54"
       style="fill:#b77668;fill-opacity:1;fill-rule:nonzero;stroke:none"
       d="m 1064.02,1042.964 c 0,0 0.312,-0.871 0.863,-2.41 3.453,-9.649 16.168,-45.61 18.469,-58.258 2.668,-14.668 0,-28 0,-28 0,0 7.703,12 1.183,42 -6.515,30 -20.203,45.797 -20.203,45.797 l -0.312,0.871 z" /><path
       inkscape:connector-curvature="0"
       id="path56"
       style="fill:#b77668;fill-opacity:1;fill-rule:nonzero;stroke:none"
       d="m 973.02,1084.964 c 0,0 -31,-11.219 -22.5,-21.86 8.5,-10.64 16.5,-24.14 27.5,-24.14 11,0 18.5,-9.5 26.5,-14.5 8,-5 19,-14 27.5,-11.5 8.5,2.5 34.5,10.5 26,11.5 -8.5,1 -14.5,5 -20,3.5 -5.5,-1.5 -12,-2.5 -16.5,-3.5 -4.5,-1 -5.25,-7 -13.25,-0.25 -8,6.75 -17,13.25 -21,14.5 -4,1.25 -6,8.504 -12.75,11.25 -6.75,2.75 -12.25,1.5 -12.25,1.5 0,0 -12.157,10.75 -10.25,17 1.902,6.25 21,16.5 21,16.5" /><path
       inkscape:connector-curvature="0"
       id="path58"
       style="fill:#151212;fill-opacity:1;fill-rule:nonzero;stroke:none"
       d="m 1179.02,1114.964 c -2,-14 -18,-54 -30,-56 -12,-2 -48.5,-5.891 -65,8.305 -16.5,14.195 -26.301,21.23 -24.317,42.96 1.981,21.735 9.317,31.727 19.317,36.731 0,0 15.5,7.504 46,-2.496 30.5,-10 56,-15.5 54,-29.5 m -174.649,16 c -8.851,-7.5 -9.285,-19.348 -42.601,-20.668 -33.321,-1.32 -58.75,17.668 -66.25,26.168 -7.5,8.5 -10.356,54.648 14,67.5 0,0 9.5,7.5 29,2.5 19.5,-5 75.5,-27.031 75.5,-45.016 0,-17.984 -0.793,-22.984 -9.649,-30.484 m 202.649,-8.5 c 0,0 -72.5,30 -92,35.5 -19.5,5.5 -55.317,0 -55.317,0 0,0 -15.683,10 -20.683,12.5 -5,2.5 -16,0 -16,0 0,0 -37,25 -52,34 -15,9 -50.5,15 -59,17 -8.5,2 -29.5,3.5 -29.5,3.5 0,0 -51.5,27.5 -64.5,27.5 -13,0 -26.5,-13 -26.5,-13 0,0 7,-4.5 9,-4 2,0.5 8.5,1.5 6.5,-5.5 -2,-7 4.5,-13.5 12.5,-14 8,-0.5 54.5,-12 61.5,-18.543 7,-6.539 -1.5,-50.457 1.5,-59.957 3,-9.5 31.5,-25 66.523,-35.5 35.023,-10.5 56.477,20.5 67.477,30.5 11,10 13.5,14 26,9.5 12.5,-4.5 3,-14.5 8,-49 5,-34.5 40,-38 78.5,-44.215 38.5,-6.215 56,44.215 58,49.715 2,5.5 4,-1 8,0 4,1 4.5,8.5 12,14 7.5,5.5 0,10 0,10" /><path
       inkscape:connector-curvature="0"
       id="path60"
       style="fill:#ffffff;fill-opacity:1;fill-rule:nonzero;stroke:none"
       d="m 905.02,1179.964 c 0,0 16,6 37.664,1.664 21.668,-4.332 29.668,-20.18 29.668,-20.18 0,0 -16.668,-6.484 -38,2.516 -21.332,9 -29.332,16 -29.332,16" /><path
       inkscape:connector-curvature="0"
       id="path62"
       style="fill:#ffffff;fill-opacity:1;fill-rule:nonzero;stroke:none"
       d="m 1075.586,1130.296 c 0,0 21.098,6 31.43,2 10.336,-4 26.668,-22 26.668,-22 0,0 -13.766,-7.332 -29.047,-2.332 -15.285,5 -29.051,21 -29.051,21 l 0,1.332 z" /><path
       inkscape:connector-curvature="0"
       id="path64"
       style="fill:#6f5c5d;fill-opacity:1;fill-rule:nonzero;stroke:none"
       d="m 954.02,1171.538 c 0,-5.574 -5,-10.09 -11.168,-10.09 -6.168,0 -11.168,4.516 -11.168,10.09 0,5.574 5,10.09 11.168,10.09 6.168,0 11.168,-4.516 11.168,-10.09" /><path
       inkscape:connector-curvature="0"
       id="path66"
       style="fill:#6f5c5d;fill-opacity:1;fill-rule:nonzero;stroke:none"
       d="m 1114.352,1121.944 c 0,-5.574 -5,-10.09 -11.168,-10.09 -6.168,0 -11.164,4.516 -11.164,10.09 0,5.575 4.996,10.09 11.164,10.09 6.168,0 11.168,-4.515 11.168,-10.09" /><path
       inkscape:connector-curvature="0"
       id="path68"
       style="fill:#231f20;fill-opacity:1;fill-rule:nonzero;stroke:none"
       d="m 947.352,1172.628 c 0,-2.207 -1.942,-4 -4.332,-4 -2.395,0 -4.336,1.793 -4.336,4 0,2.211 1.941,4 4.336,4 2.39,0 4.332,-1.789 4.332,-4" /><path
       inkscape:connector-curvature="0"
       id="path70"
       style="fill:#231f20;fill-opacity:1;fill-rule:nonzero;stroke:none"
       d="m 1107.516,1121.944 c 0,-2.211 -1.938,-4 -4.332,-4 -2.395,0 -4.332,1.789 -4.332,4 0,2.207 1.937,4 4.332,4 2.394,0 4.332,-1.793 4.332,-4" /><path
       inkscape:connector-curvature="0"
       id="path72"
       style="fill:#5a4c4d;fill-opacity:1;fill-rule:nonzero;stroke:none"
       d="m 774.215,1244.175 c 0,0 30.801,-11.211 35.801,-38.211 5,-27 0,-19 0,-19 0,0 69,80 74,102 5,22 9,63 21,79 12,16 11,34 38,25 27,-9 115.668,-61 155.836,-65 40.164,-4 103.164,-24.703 105.164,-37.352 2,-12.648 14,-69.648 0,-84.648 -14,-15 -22.575,-58.414 -17,-68 5.578,-9.59 4.308,-38.535 4.308,-38.535 0,0 18.676,-2.684 21.184,12.425 2.508,15.11 9.512,53.778 20.844,78.442 11.332,24.668 26,42 22,54 -4,12 -18.454,25.332 -15.895,38.668 2.559,13.332 13.895,27.332 20.559,30.664 6.668,3.336 16.668,14.668 16.668,14.668 0,0 -2,10 -23.332,10 -21.336,0 -26,2 -26,2 0,0 -8,22.668 -4,26.668 4,4 16.105,13.332 16.105,13.332 0,0 -6.773,1.336 -16.105,10 -9.336,8.668 -18,24.758 -18,24.758 l -21.336,-20.09 c 0,0 -7.332,0.668 -29.332,11.332 -22,10.668 -64.196,37.332 -79.098,41.332 -14.902,4 -44.902,12.668 -60.234,12 -15.336,-0.664 -40.336,-3.332 -72.5,-10 -32.168,-6.664 -38.836,-7.996 -52.836,-19.332 -14,-11.332 -44.664,-28.668 -54,-42.668 -9.332,-14 -21.664,-45.332 -31.5,-67.332 -9.832,-22 -30.301,-76.121 -30.301,-76.121" /><path
       inkscape:connector-curvature="0"
       id="path74"
       style="fill:#372e2f;fill-opacity:1;fill-rule:nonzero;stroke:none"
       d="m 919.52,1417.464 c 0,0 -18.5,39 -26,45 -7.5,6 3,0 3,0 0,0 32.5,-12.5 43,-35 10.5,-22.5 28.5,-18.5 28.5,-18.5 0,0 -27,-5.5 -33.5,4 -6.5,9.5 -5.102,-9 -5.102,-9 l -9.898,13.5 z" /><path
       inkscape:connector-curvature="0"
       id="path76"
       style="fill:#372e2f;fill-opacity:1;fill-rule:nonzero;stroke:none"
       d="m 975.52,1403.964 14,-24.5 c 0,0 6,-2.5 2,12.25 -4,14.75 12.851,8.25 12.851,8.25 0,0 5.649,-18 5.649,-23.5 0,-5.5 10,-0.5 10,0 0,0.5 1.863,14.5 5.429,19 3.571,4.5 17.071,-21.5 18.571,-27.5 1.5,-6 11.5,-14.5 11.5,-14.5 0,0 -3.5,10.5 0,22.5 3.5,12 17.5,7 17.5,7 0,0 6.5,-13 9,-23.5 2.5,-10.5 3.5,-13.5 3.5,-13.5 0,0 12.664,-16 13.332,2.5 0.668,18.5 -24.336,22.5 -6.832,29 17.5,6.5 28,-14.5 28,-14.5 0,0 1,-14 0,-21.5 -1,-7.5 16,-14 16,-14 0,0 -10.5,8.5 -10.5,18.5 0,10 14,19.75 14,19.75 l 9.5,-18.75 c 0,0 -4.5,-5.5 5,-14.5 9.5,-9 20,-27 16,-12 -4,15 -7,27 -6.5,30 0.5,3 23,-11.5 23,-11.5 0,0 -2.5,-11 4,-21.5 6.5,-10.5 17,-14 16,-10 -1,4 0.062,17.828 0.062,17.828 0,0 8.438,3.172 15.938,-32.328 7.5,-35.5 6.5,-59.567 6.5,-59.567 0,0 11.5,-6.433 8.5,15.067 -3,21.5 -9.5,27 -2.5,45 7,18 30,29.5 30,29.5 l 9.246,9.215 c 0,0 -5.746,3.785 -20.246,0.285 -14.5,-3.5 -26,-8 -26,-8 0,0 -8.5,-7.5 -10.5,5 -2,12.5 -2,21 -2,28.5 0,7.5 -1,18 5.5,21 l 6.5,3 c 0,0 -8.336,6.5 -17.168,-1 -8.832,-7.5 -10.832,-16.5 -10.832,-16.5 0,0 4.945,26.023 4,37 -0.95,10.973 0,6.5 0,6.5 0,0 -10.5,-14.5 -13.5,-24 -3,-9.5 -14.5,-7.5 -14.5,-7.5 0,0 -13,14.5 -17,18 -4,3.5 -26,19 -41,24 -15,5 -47,20 -49.5,21 -2.5,1 -28.5,5.5 -31.5,5.5 -3,0 -23.5,-2.5 -27,0 -3.5,2.5 -26.5,5.5 -34,3.5 -7.5,-2 -16,-6.5 -18,-7.5 -2,-1 -23.758,-4.399 -23.758,-4.399 l -4.344,0.399 -6.398,-5.5 12,-12 12.332,-7 28.168,-8.5 z" /><path
       inkscape:connector-curvature="0"
       id="path78"
       style="fill:#372e2f;fill-opacity:1;fill-rule:nonzero;stroke:none"
       d="m 912.02,1432.565 c 0,0 -11.09,-5.668 -23.774,-13.168 -15.308,-9.054 -35.242,-20.164 -36.226,-28.433 -2.5,-21 -15.5,-26.336 -15.5,-26.336 l 30.902,-2.387 -50.137,-40.773 31.567,14.328 27.832,23.168 -40.664,-79.508 39.503,53.672 29.497,47.836 14.5,36.5 14.242,19.101 -21.742,-4 z" /><path
       inkscape:connector-curvature="0"
       id="path80"
       style="fill:#b77668;fill-opacity:1;fill-rule:nonzero;stroke:none"
       d="m 894.203,1007.464 c 0,0 18.5,3 41,-6 22.5,-9 77,-34.5 86.5,-34.5 9.5,0 44.5,-10 44.5,-10 0,0 -12.5,-13 -19,-17.5 -6.5,-4.5 -19,-30.5 -44.5,-33 -25.5,-2.5 -52.5,7.5 -52.5,7.5 0,0 -22,5.5 -31,24 -9,18.5 -21.5,43.5 -21.5,43.5 l -3.5,26 z" /><path
       inkscape:connector-curvature="0"
       id="path82"
       style="fill:#e7768b;fill-opacity:1;fill-rule:nonzero;stroke:none"
       d="m 919.762,972.964 c 0,0 -0.668,12 12,11.332 12.668,-0.668 38,-28 38.668,-32.668 0,0 -10,14.027 -2.668,16.348 7.332,2.32 53.332,-13.68 56,-21.68 2.668,-8 0,-16 0,-16 l -21.332,-12.668 c 0,0 -24.668,-2 -40.668,3.336 -16,5.332 -32,26 -36.668,34 -4.664,8 -5.34,14.664 -5.34,14.664" /><path
       inkscape:connector-curvature="0"
       id="path84"
       style="fill:#ffffff;fill-opacity:1;fill-rule:nonzero;stroke:none"
       d="m 921.23,1003.464 c 0,0 -3.5,-4.5 0,-6 3.5,-1.5 12,-9 12,-9 l 8.5,0 c 0,0 3,-9 5.5,-9.5 2.5,-0.5 11.5,0 11.5,0 0,0 -0.5,-4.5 3.5,-5 4,-0.5 10.5,-2.5 10.5,-2.5 0,0 -2.5,-3.5 2.5,-4 5,-0.5 13.059,-3.309 13.059,-3.309 l 10.441,-4.191 c 0,0 11,2.5 13.5,0 2.5,-2.5 13.5,-5.5 13.5,-5.5 l 6,0 6,3.5 3,5.5 -36.5,15.5 c 0,0 -48,14 -49.5,15 -1.5,1 -18.5,7 -18.5,7 l -15,2.5 z" /><path
       inkscape:connector-curvature="0"
       id="path86"
       style="fill:#3c3336;fill-opacity:1;fill-rule:nonzero;stroke:none"
       d="m 590.711,906.062 c 0,0 199.844,-173.098 226.574,-194.098 26.735,-21 44.735,-27.09 44.735,-27.09 0,0 -164,246.09 -166,282.09 0,0 15.382,-61.805 -105.309,-60.902" /><path
       inkscape:connector-curvature="0"
       id="path88"
       style="fill:#3c3336;fill-opacity:1;fill-rule:nonzero;stroke:none"
       d="m 567.02,862.964 c 0,0 69,-106 111,-123 42,-17 139.265,-75 139.265,-75 0,0 24.735,-130 14.735,-194 -10,-64 -68.375,-288.567 -68.375,-288.567 0,0 -66.247,156.567 -62.938,212.567 3.313,56 -26.687,105.578 -26.687,105.578 0,0 -52,-51.578 -46,-109.578 6,-58 32,-142 32,-142 0,0 -76.618,50 -69.309,110 7.309,60 25.309,173 25.309,173 0,0 18,26.945 8,81.973 -10,55.027 -33.309,98.027 -33.309,98.027 0,0 -4.691,52.183 -6.691,66.59 -2,14.41 -17,84.41 -17,84.41" /><path
       inkscape:connector-curvature="0"
       id="path90"
       style="fill:#3c3336;fill-opacity:1;fill-rule:nonzero;stroke:none"
       d="m 446.266,957.003 c 0,0 -81.371,-94.039 -85.813,-109.039 -4.433,-15 -20.433,-44.496 -26.433,-56.75 -6,-12.25 -92,-106.34 -92,-106.34 0,0 96,113.34 76,134.715 -20,21.375 -57,-41.035 -57,-41.035 0,0 113.496,180.488 185.246,178.449" /><path
       inkscape:connector-curvature="0"
       id="path92"
       style="fill:#3c3336;fill-opacity:1;fill-rule:nonzero;stroke:none"
       d="M 578.02,-3.036 476.012,293.362 614.008,-7.845 578.02,-3.036 z" /><path
       inkscape:connector-curvature="0"
       id="path94"
       style="fill:#3c3336;fill-opacity:1;fill-rule:nonzero;stroke:none"
       d="m 482.898,-0.001 -56.242,160.965 19.61,-166.949 36.632,5.984 z" /><path
       inkscape:connector-curvature="0"
       id="path96"
       style="fill:#3c3336;fill-opacity:1;fill-rule:nonzero;stroke:none"
       d="m 170.02,77.491 c 0,0 -70.301,356.754 -7.329,460.317 0,0 -111.32,-109.25 7.329,-460.317" /><path
       inkscape:connector-curvature="0"
       id="path98"
       style="fill:#3c3336;fill-opacity:1;fill-rule:nonzero;stroke:none"
       d="m 142.668,-5.985 -32.496,228.882 c 0,0 13.5,-109.324 46.496,-145.406 33,-36.086 25.5,-33.086 25.5,-33.086 0,0 -4.5,89.121 -6,116.559 -1.5,27.433 6.73,79.961 6.73,79.961 0,0 38.266,-226.805 51.766,-246.91 13.5,-20.106 -91.996,0 -91.996,0" /><path
       inkscape:connector-curvature="0"
       id="path100"
       style="fill:#b77668;fill-opacity:1;fill-rule:nonzero;stroke:none"
       d="m 798.207,1032.296 c 0,0 2.856,-68.91 36.191,-140.332 0,0 -42.668,58.332 -36.191,140.332" /><path
       inkscape:connector-curvature="0"
       id="path102"
       style="fill:#3c3336;fill-opacity:1;fill-rule:nonzero;stroke:none"
       d="m 980.203,582.964 c 0,0 -11.476,36 24.168,56 35.649,20 94.883,92 100.266,122 l 5.383,30 c 0,0 31.332,-38 23.664,-90 -7.664,-52 15.336,-94 34.336,-118 19,-24 8,38 0,74 -8,36 2,64.922 -2,95.461 -4,30.539 12.515,50.539 12.515,50.539 0,0 53.485,-33.379 77.485,-112.692 24,-79.308 110,-239.449 154,-383.378 44,-143.93 64,-119.93 14,-107.93 -50,12 -52,46 -78,12 -26,-34 16,-96.949 -22,-133.477 -38,-36.523 -144,77.477 -137,133.477 7,56 -29,252.305 0,269.152 29,16.848 46.664,33.281 23.332,42.567 -23.332,9.281 -79,32.281 -76.668,44.281 2.336,12 -11,36 -19.332,30 -8.332,-6 19.668,-88.844 7.668,-96.422 -12,-7.578 -13.004,-141.223 -14.504,-152.402 -1.496,-11.176 -5.223,-69.176 -20.36,-91.176 -15.136,-22 -51.058,-50 -51.058,-50 0,0 -5.922,77.859 0,99.93 5.922,22.07 43.058,60.07 39.488,88.07 -3.566,28 3.57,77.867 0,96.933 -3.566,19.067 9.801,61.067 -15.883,40.067 -25.683,-21 -34.758,-51.848 -34.758,-51.848 0,0 -27.093,-22.847 -24.011,0 3.086,22.848 0,57.696 0,57.696 l -20.731,45.152 z" /><path
       inkscape:connector-curvature="0"
       id="path104"
       style="fill:#b77668;fill-opacity:1;fill-rule:nonzero;stroke:none"
       d="m 900.02,1159.187 c 0,0 18.488,-14.723 33.742,-15.723 15.258,-1 39.758,1.492 42.758,3.496 3,2.004 10.5,10.453 15,12.227 4.5,1.777 9.414,9.441 9.414,9.441 0,0 3.418,-14.91 0,-18.285 -3.414,-3.379 -3.414,-13.879 -9.914,-14.379 -6.5,-0.5 -21.5,2.5 -21.5,2.5 0,0 -33.688,-5.5 -49.844,4 -16.156,9.5 -19.656,16.723 -19.656,16.723" /><path
       inkscape:connector-curvature="0"
       id="path106"
       style="fill:#b77668;fill-opacity:1;fill-rule:nonzero;stroke:none"
       d="m 1064.02,1115.964 c 0,0 19.664,-28 34.832,-34 15.168,-6 37.668,-5.93 37.668,-5.93 0,0 6.5,3.57 6.5,0 0,-3.57 3,0 3,0 0,0 8,16.41 12,19.172 4,2.758 10,15.09 10,15.09 0,0 -5,-7.832 -12,-8.332 -7,-0.5 -11.5,16.461 -13.5,17.98 -2,1.52 -8.836,6 -8.836,6 0,0 13.336,-14.972 8.836,-19.726 -4.5,-4.754 4.5,-10.754 1,-14.254 -3.5,-3.5 0.5,-10.5 -16,-10 -16.5,0.5 -27,-0.5 -63.5,34" /><path
       inkscape:connector-curvature="0"
       id="path108"
       style="fill:#ffffff;fill-opacity:1;fill-rule:nonzero;stroke:none"
       d="m 687.234,1347.284 15.782,-4.832 -13.246,-36.566 -16.563,4.027 14.027,37.371 z" /><path
       inkscape:connector-curvature="0"
       id="path110"
       style="fill:#ffd200;fill-opacity:1;fill-rule:nonzero;stroke:none"
       d="m 592.305,1333.96 c 0,0 -22.164,25.332 -35.832,25.332 -13.672,0 -35.836,-25.332 -35.836,-25.332 0,0 25,28.668 25,35.832 0,8.168 -25,35.836 -25,35.836 0,0 26,-24.336 35.836,-24.336 9.832,0 35.832,24.336 35.832,24.336 0,0 -28.668,-25.836 -28.668,-35.836 0,-7.664 28.668,-35.832 28.668,-35.832"
       inkscape:export-filename="C:\Users\Adam\Documents\Work\Web Design\MySites\hospitalityrocks\assets\path130.png"
       inkscape:export-xdpi="13.441529"
       inkscape:export-ydpi="13.441529" /><path
       inkscape:connector-curvature="0"
       id="path112"
       style="fill:#ffd200;fill-opacity:1;fill-rule:nonzero;stroke:none"
       d="m 604.305,1426.78 c 0,0 -22.164,25.332 -35.832,25.332 -13.672,0 -35.836,-25.332 -35.836,-25.332 0,0 25,28.664 25,35.832 0,8.168 -25,35.832 -25,35.832 0,0 26,-24.332 35.836,-24.332 9.832,0 35.832,24.332 35.832,24.332 0,0 -28.668,-25.832 -28.668,-35.832 0,-7.668 28.668,-35.832 28.668,-35.832"
       inkscape:export-filename="C:\Users\Adam\Documents\Work\Web Design\MySites\hospitalityrocks\assets\path130.png"
       inkscape:export-xdpi="13.441529"
       inkscape:export-ydpi="13.441529" /><path
       inkscape:connector-curvature="0"
       id="path114"
       style="fill:#ffd200;fill-opacity:1;fill-rule:nonzero;stroke:none"
       d="m 523.105,1473.995 c 0,0 -29.726,33.977 -48.058,33.977 -18.332,0 -48.059,-33.977 -48.059,-33.977 0,0 33.528,38.449 33.528,48.059 0,10.953 -33.528,48.058 -33.528,48.058 0,0 34.871,-32.633 48.059,-32.633 13.187,0 48.058,32.633 48.058,32.633 0,0 -38.449,-34.648 -38.449,-48.058 0,-10.282 38.449,-48.059 38.449,-48.059"
       inkscape:export-filename="C:\Users\Adam\Documents\Work\Web Design\MySites\hospitalityrocks\assets\path130.png"
       inkscape:export-xdpi="13.441529"
       inkscape:export-ydpi="13.441529" /><path
       inkscape:connector-curvature="0"
       id="path116"
       style="fill:#ffd200;fill-opacity:1;fill-rule:nonzero;stroke:none"
       d="m 673.969,1350.792 c 0,0 -14.739,16.852 -23.832,16.852 -9.094,0 -23.832,-16.852 -23.832,-16.852 0,0 16.625,19.066 16.625,23.832 0,5.434 -16.625,23.836 -16.625,23.836 0,0 17.293,-16.184 23.832,-16.184 6.539,0 23.832,16.184 23.832,16.184 0,0 -19.067,-17.184 -19.067,-23.836 0,-5.098 19.067,-23.832 19.067,-23.832"
       inkscape:export-filename="C:\Users\Adam\Documents\Work\Web Design\MySites\hospitalityrocks\assets\path130.png"
       inkscape:export-xdpi="13.441529"
       inkscape:export-ydpi="13.441529" /><path
       inkscape:connector-curvature="0"
       id="path118"
       style="fill:#ffd200;fill-opacity:1;fill-rule:nonzero;stroke:none"
       d="m 688.836,1402.944 c 0,0 -14.742,16.852 -23.832,16.852 -9.094,0 -23.836,-16.852 -23.836,-16.852 0,0 16.629,19.067 16.629,23.836 0,5.43 -16.629,23.832 -16.629,23.832 0,0 17.297,-16.183 23.836,-16.183 6.539,0 23.832,16.183 23.832,16.183 0,0 -19.066,-17.183 -19.066,-23.832 0,-5.101 19.066,-23.836 19.066,-23.836"
       inkscape:export-filename="C:\Users\Adam\Documents\Work\Web Design\MySites\hospitalityrocks\assets\path130.png"
       inkscape:export-xdpi="13.441529"
       inkscape:export-ydpi="13.441529" /><path
       inkscape:connector-curvature="0"
       id="path120"
       style="fill:#ffd200;fill-opacity:1;fill-rule:nonzero;stroke:none"
       d="m 608.965,1522.444 c 0,0 -14.742,16.852 -23.832,16.852 -9.094,0 -23.836,-16.852 -23.836,-16.852 0,0 16.629,19.067 16.629,23.836 0,5.43 -16.629,23.832 -16.629,23.832 0,0 17.297,-16.183 23.836,-16.183 6.539,0 23.832,16.183 23.832,16.183 0,0 -19.067,-17.183 -19.067,-23.832 0,-5.101 19.067,-23.836 19.067,-23.836"
       inkscape:export-filename="C:\Users\Adam\Documents\Work\Web Design\MySites\hospitalityrocks\assets\path130.png"
       inkscape:export-xdpi="13.441529"
       inkscape:export-ydpi="13.441529" /><path
       inkscape:connector-curvature="0"
       id="path122"
       style="fill:#ffd200;fill-opacity:1;fill-rule:nonzero;stroke:none"
       d="m 511.105,1402.944 c 0,0 -14.742,16.852 -23.835,16.852 -9.09,0 -23.832,-16.852 -23.832,-16.852 0,0 16.628,19.067 16.628,23.836 0,5.43 -16.628,23.832 -16.628,23.832 0,0 17.292,-16.183 23.832,-16.183 6.543,0 23.835,16.183 23.835,16.183 0,0 -19.066,-17.183 -19.066,-23.832 0,-5.101 19.066,-23.836 19.066,-23.836"
       inkscape:export-filename="C:\Users\Adam\Documents\Work\Web Design\MySites\hospitalityrocks\assets\path130.png"
       inkscape:export-xdpi="13.441529"
       inkscape:export-ydpi="13.441529" /><path
       inkscape:connector-curvature="0"
       id="path124"
       style="fill:#ffd200;fill-opacity:1;fill-rule:nonzero;stroke:none"
       d="m 665.004,1462.612 c 0,0 -14.742,16.852 -23.836,16.852 -9.09,0 -23.832,-16.852 -23.832,-16.852 0,0 16.629,19.067 16.629,23.832 0,5.434 -16.629,23.836 -16.629,23.836 0,0 17.293,-16.183 23.832,-16.183 6.543,0 23.836,16.183 23.836,16.183 0,0 -19.066,-17.183 -19.066,-23.836 0,-5.097 19.066,-23.832 19.066,-23.832"
       inkscape:export-filename="C:\Users\Adam\Documents\Work\Web Design\MySites\hospitalityrocks\assets\path130.png"
       inkscape:export-xdpi="13.441529"
       inkscape:export-ydpi="13.441529" /><path
       inkscape:connector-curvature="0"
       id="path126"
       style="fill:#ffd200;fill-opacity:1;fill-rule:nonzero;stroke:none"
       d="m 638.219,1317.46 c 0,0 -7.371,8.426 -11.914,8.426 -4.547,0 -11.918,-8.426 -11.918,-8.426 0,0 8.312,9.531 8.312,11.914 0,2.719 -8.312,11.918 -8.312,11.918 0,0 8.648,-8.094 11.918,-8.094 3.269,0 11.914,8.094 11.914,8.094 0,0 -9.531,-8.59 -9.531,-11.918 0,-2.547 9.531,-11.914 9.531,-11.914"
       inkscape:export-filename="C:\Users\Adam\Documents\Work\Web Design\MySites\hospitalityrocks\assets\path130.png"
       inkscape:export-xdpi="13.441529"
       inkscape:export-ydpi="13.441529" /><path
       inkscape:connector-curvature="0"
       id="path128"
       style="fill:#ffd200;fill-opacity:1;fill-rule:nonzero;stroke:none"
       d="m 727.223,1369.71 c 0,0 -7.371,8.426 -11.918,8.426 -4.547,0 -11.918,-8.426 -11.918,-8.426 0,0 8.312,9.531 8.312,11.914 0,2.719 -8.312,11.918 -8.312,11.918 0,0 8.648,-8.094 11.918,-8.094 3.269,0 11.918,8.094 11.918,8.094 0,0 -9.535,-8.59 -9.535,-11.918 0,-2.547 9.535,-11.914 9.535,-11.914" /><path
       inkscape:connector-curvature="0"
       id="path130"
       style="fill:#ffd200;fill-opacity:1;fill-rule:nonzero;stroke:none"
       d="m 616.137,1380.804 c 0,0 -7.371,8.422 -11.918,8.422 -4.543,0 -11.914,-8.422 -11.914,-8.422 0,0 8.312,9.531 8.312,11.914 0,2.715 -8.312,11.918 -8.312,11.918 0,0 8.644,-8.094 11.914,-8.094 3.273,0 11.918,8.094 11.918,8.094 0,0 -9.532,-8.59 -9.532,-11.918 0,-2.547 9.532,-11.914 9.532,-11.914"
       inkscape:export-xdpi="13.441529"
       inkscape:export-ydpi="13.441529" /><path
       inkscape:connector-curvature="0"
       id="path132"
       style="fill:#b77668;fill-opacity:1;fill-rule:nonzero;stroke:none"
       d="m 1096.215,928.589 c 0,0 -45.91,-35.418 -52.621,-49.973 -6.707,-14.554 -11.774,-23.281 -11.774,-23.281 0,0 9.25,19.59 21.45,30.027 12.199,10.438 42.945,43.227 42.945,43.227" /><path
       style="opacity:0.5;fill:#ffd200;fill-opacity:1;stroke:none"
       d="m 856.61602,336.04446 c 0,0 -978.34567,365.18894 468.88458,982.85414 639.0803,272.7539 1289.4325,184.8488 1289.4325,184.8488 l 0,266.0018 c 0,0 -802.7158,64.9341 -1406.6537,-279.5274 C -247.9876,659.62642 856.61602,336.04446 856.61602,336.04446 z"
       id="path4474"
       inkscape:connector-curvature="0"
       transform="matrix(0.8,0,0,-0.8,0,1606.96)"
       sodipodi:nodetypes="csccsc" /><path
       style="opacity:0.5;fill:#ffd200;fill-opacity:1;stroke:none"
       d="m 691.61269,1343.7541 c 0,0 -989.43487,-284.2121 324.61241,-995.47807 C 1505.0863,83.665838 2097.3554,141.88841 2097.3554,141.88841 l -3.6068,-110.100174 c 0,0 -681.371,-64.816913 -1299.73126,357.725084 C -248.36059,1101.7978 691.61269,1343.7541 691.61269,1343.7541 z"
       id="path4474-8"
       inkscape:connector-curvature="0"
       sodipodi:nodetypes="csccsc" /></g></svg>